<?xml version="1.0" encoding="utf-8"?>
<!-- Generator: Adobe Illustrator 24.3.0, SVG Export Plug-In . SVG Version: 6.00 Build 0)  -->
<svg version="1.1" id="Layer_1" xmlns="http://www.w3.org/2000/svg" xmlns:xlink="http://www.w3.org/1999/xlink" x="0px" y="0px"
	 viewBox="0 0 640 455.999" style="enable-background:new 0 0 640 455.999;" xml:space="preserve">
<path fill="#FFFFFF" d="M412.6,153.999c-10.28-8.334-25.41-6.867-33.75,3.402c-8.406,10.24-6.906,25.35,3.375,33.74
	C393.5,200.399,400,213.799,400,227.099c0,14.17-6.5,27.59-17.81,36.83c-10.28,8.396-11.78,23.5-3.375,33.74
	c4.719,5.806,11.62,8.802,18.56,8.802c5.344,0,10.75-1.779,15.19-5.399C435.1,283.499,448,256.599,448,227.099
	S435.1,172.399,412.6,153.999z M473.1,80.199c-10.22-8.334-25.34-6.898-33.78,3.34c-8.406,10.24-6.906,25.35,3.344,33.74
	C476.6,144.099,496,185.299,496,227.099s-19.44,82.1-53.31,110.7c-10.25,8.396-11.75,23.5-3.344,33.74
	c4.75,5.775,11.62,8.771,18.56,8.771c5.375,0,10.75-1.779,15.22-5.431C518.2,338.899,544,284.999,544,227.099
	S518.2,116.999,473.1,80.199z M534.4,5.399c-10.22-8.334-25.34-6.867-33.78,3.34c-8.406,10.24-6.906,25.35,3.344,33.74
	C559.9,88.299,592,155.899,592,227.099s-32.09,139.7-88.06,185.5c-10.25,8.396-11.75,23.5-3.344,33.74
	c4.704,6.66,11.604,9.66,18.604,9.66c5.375,0,10.75-1.779,15.22-5.431C601.5,395.599,640,314.499,640,227.099
	S601.5,60.339,534.4,5.399z M301.2,6.979c-11.5-5.181-25.01-3.076-34.43,5.29L131.8,132.099H48c-26.51,0-48,21.48-48,47.96v95.92
	c0,26.48,21.49,47.96,48,47.96h83.84l134.9,119.8c5.96,5.26,13.56,8.06,21.26,8.06c4.438,0,8.959-0.931,13.16-2.835
	c11.54-5.165,18.84-16.565,18.84-29.065V36.119C320,23.549,312.7,12.129,301.2,6.979z"/>
</svg>
