<?xml version="1.0" encoding="utf-8"?>
<!-- Generator: Adobe Illustrator 24.3.0, SVG Export Plug-In . SVG Version: 6.00 Build 0)  -->
<svg version="1.1" id="Layer_1" xmlns="http://www.w3.org/2000/svg" xmlns:xlink="http://www.w3.org/1999/xlink" x="0px" y="0px"
	 viewBox="0 0 568.001 445.272" style="enable-background:new 0 0 568.001 445.272;" xml:space="preserve">
<path fill="#FFFFFF" d="M301.2,2.828c-11.5-5.188-25.02-3.122-34.44,5.253L131.8,127.978H48c-26.51,0-48,21.49-48,47.1v95.1
	c0,26.51,21.49,47.1,48,47.1h83.84l134.9,119.9c5.984,5.312,13.58,8.094,21.26,8.094c4.438,0,8.972-0.938,13.17-2.844
	c11.5-5.156,18.82-16.56,18.82-29.16V31.978C319.1,19.388,312.7,7.978,301.2,2.828z M513.9,223.078l47.03-47.03
	c9.375-9.375,9.375-24.56,0-33.94s-24.56-9.375-33.94,0L480,190.078l-47.9-47.1c-9.375-9.375-24.56-9.375-33.94,0
	s-9.375,24.56,0,33.94l47.03,47.03l-47.03,47.03c-9.375,9.375-9.375,24.56,0,33.94c9.373,9.373,24.56,9.381,33.94,0l47.9-47.04
	l47.03,47.03c9.373,9.373,24.56,9.381,33.94,0c9.375-9.375,9.375-24.56,0-33.94L513.9,223.078z"/>
</svg>
